<svg xmlns="http://www.w3.org/2000/svg" fill="none" viewBox="0 0 155 58"><g clip-path="url(#a)"><path stroke="currentColor" stroke-miterlimit="10" stroke-width="1.914" d="M21.86 18.079c5.334-1.435 10.476-1.94 14.512-1.575M21.86 18.079c-5.388 1.45-10.206 3.645-13.52 6.008m13.52-6.008-.248-.924m14.761-.651.086-.953m-.086.953c2.43.219 4.437.759 5.882 1.485 1.468.737 2.218 1.592 2.428 2.37.221.82-.019 2.01-.986 3.466-.952 1.434-2.526 2.995-4.676 4.477-3.242 2.234-7.833 4.197-12.908 5.562-5.215 1.403-10.262 2.075-14.232 1.726-2.517-.22-4.593-.805-6.088-1.58-1.52-.788-2.307-1.7-2.525-2.511-.21-.78-.008-1.883.85-3.231.848-1.33 2.264-2.783 4.222-4.18m0 0-.536-.752"/><path stroke="currentColor" stroke-miterlimit="10" stroke-width="1.914" d="M29.758 20.184c3.91 3.903 6.918 8.104 8.62 11.781m-8.62-11.78c-3.95-3.942-8.26-7.018-11.963-8.705m11.963 8.704.676-.677m7.944 12.458.869-.402m-.869.402c1.026 2.214 1.561 4.222 1.655 5.836.095 1.64-.27 2.718-.838 3.288-.601.602-1.75.989-3.496.88-1.717-.107-3.856-.69-6.214-1.812-3.556-1.69-7.551-4.685-11.27-8.397m0 0-.65.65m.65-.65c-3.823-3.815-6.928-7.85-8.611-11.462-1.067-2.29-1.6-4.38-1.676-6.063-.077-1.71.32-2.848.912-3.443.571-.572 1.627-.947 3.224-.878 1.576.068 3.542.568 5.73 1.566m0 0 .398-.87"/><path stroke="currentColor" stroke-miterlimit="10" stroke-width="1.914" d="m25.992 41.433.782.55m-.782-.55c-1.405 1.995-2.876 3.462-4.227 4.35-1.373.903-2.488 1.126-3.267.918-.822-.219-1.73-1.02-2.51-2.587-.765-1.54-1.33-3.684-1.538-6.287-.313-3.925.283-8.882 1.638-13.96m9.904 17.566c2.333-3.314 4.468-8.02 5.893-13.356 1.438-5.391 1.947-10.662 1.556-14.713-.23-2.394-.78-4.347-1.509-5.746-.738-1.417-1.591-2.144-2.372-2.352-.812-.216-1.996.01-3.438.932-1.42.906-2.963 2.413-4.413 4.482-2.287 3.264-4.229 7.97-5.621 13.188m0 0-.925-.247"/><path fill="currentColor" d="M24 23.449a4.973 4.973 0 0 0-.83-.664 2.397 2.397 0 0 0-.562-.272c-.202-.067-.4-.101-.593-.101-.7 0-1.249.194-1.646.581-.397.388-.595.925-.595 1.613 0 .69.358 1.393 1.073 2.11 0 0 1.953 1.75 3.153 2.873 1.2-1.122 3.154-2.874 3.154-2.874.715-.716 1.073-1.419 1.073-2.11 0-.687-.198-1.224-.595-1.612-.397-.387-.946-.581-1.646-.581-.193 0-.391.034-.593.1a2.395 2.395 0 0 0-.562.273 4.993 4.993 0 0 0-.83.664Z"/><g filter="url(#b)"><path fill="#fff" d="M74.371 20.5V3h15v2.5h2.5V13h-2.5v2.5h-10v5h-5Zm5-7.5h7.5V5.5h-7.5V13Zm15.2 7.5V3h12.5v2.5h2.5V8h2.5v7.5h-2.5V18h-2.5v2.5h-12.5Zm5-2.5h5v-2.5h2.5V8h-2.5V5.5h-5V18Zm17.7 2.5V18h5V5.5h-5V3h15v2.5h-5V18h5v2.5h-15Zm-63 24V27h15v2.5h2.5V37h-5v2.5h2.5V42h2.5v2.5h-7.5V42h-2.5v-2.5h-2.5v5h-5Zm5-7.5h5v-2.5h2.5v-5h-7.5V37Zm15.2 7.5V27h17.5v2.5h-12.5v5h10V37h-10v5h12.5v2.5h-17.5Zm20.2 0V32h2.5v-2.5h2.5V27h7.5v2.5h2.5V32h2.5v12.5h-5v-5h-7.5v5h-5Zm5-7.5h7.5v-5h-2.5v-2.5h-2.5V32h-2.5v5Zm20.2 7.5V42h-2.5v-2.5h-2.5V32h2.5v-2.5h2.5V27h10v2.5h2.5V32h-5v-2.5h-5V32h-2.5v7.5h2.5V42h5v-2.5h5V42h-2.5v2.5h-10Zm22.7 0v-15h-5V27h15v2.5h-5v15h-5Z"/></g></g><defs><clipPath id="a"><path fill="#fff" d="M0 0h155v58H0z"/></clipPath><filter id="b" width="106.3" height="49.5" x="50.271" y="3" color-interpolation-filters="sRGB" filterUnits="userSpaceOnUse"><feFlood flood-opacity="0" result="BackgroundImageFix"/><feColorMatrix in="SourceAlpha" result="hardAlpha" values="0 0 0 0 0 0 0 0 0 0 0 0 0 0 0 0 0 0 127 0"/><feOffset dy="4"/><feGaussianBlur stdDeviation="2"/><feComposite in2="hardAlpha" operator="out"/><feColorMatrix values="0 0 0 0 0 0 0 0 0 0 0 0 0 0 0 0 0 0 0.25 0"/><feBlend in2="BackgroundImageFix" result="effect1_dropShadow_1_107"/><feBlend in="SourceGraphic" in2="effect1_dropShadow_1_107" result="shape"/></filter></defs></svg>
